<svg version="1.1" xmlns="http://www.w3.org/2000/svg" xmlns:xlink="http://www.w3.org/1999/xlink" width="54.94148" height="54.94148" viewBox="0,0,54.94148,54.94148"><g transform="translate(-212.52926,-152.52926)"><g stroke-miterlimit="10"><g><g stroke="#000000"><path d="M213.52926,180c0,-14.61939 11.85136,-26.47074 26.47074,-26.47074c14.61939,0 26.47074,11.85136 26.47074,26.47074c0,14.61939 -11.85136,26.47074 -26.47074,26.47074c-14.61939,0 -26.47074,-11.85136 -26.47074,-26.47074z" fill="#929292" stroke-width="2" stroke-linecap="butt"/><path d="M232.09102,157.53896l9.39934,5.12296l-7.36747,9.30494" fill="none" stroke-width="5" stroke-linecap="round"/><path d="M222.62857,180c0,-9.59398 7.77745,-17.37143 17.37143,-17.37143c9.59398,0 17.37143,7.77745 17.37143,17.37143c0,9.59398 -7.77745,17.37143 -17.37143,17.37143c-9.59398,0 -17.37143,-7.77745 -17.37143,-17.37143z" fill="none" stroke-width="5" stroke-linecap="butt"/></g><path d="M251.84432,160.53194c-0.04403,0.17732 -0.12053,0.30072 -0.21107,0.38594l0.29383,0.38914c0.09777,0.12667 0.15593,0.28547 0.15593,0.45786c0,0.3721 -0.27098,0.68091 -0.62636,0.73986c0.30626,1.52151 -2.88412,1.20008 -3.13513,2.7994c-0.27402,1.74593 2.31619,5.36351 0.81334,5.73133c-2.64776,0.64803 -4.84779,-2.08671 -6.28312,-3.86143c-0.06222,-0.08238 -0.12444,-0.16476 -0.18666,-0.24714c-0.1142,0.03 -0.25147,0.03155 -0.41552,-0.0147c-0.72187,-0.20349 -0.51837,-0.92536 -0.51837,-0.92536c0.4802,-1.6021 1.90631,-2.48299 2.58608,-3.88044c0.15088,-0.31017 -2.68157,-2.17239 -3.03321,-2.3435l-0.55117,-0.43563c0,0 -0.57415,-0.48255 -0.0916,-1.0567c0.48255,-0.57415 1.0567,-0.0916 1.0567,-0.0916l0.25328,0.24048c0.40743,0.20559 0.98056,0.5243 1.56036,0.91779c-0.12776,-0.13613 -0.21861,-0.3429 -0.15163,-0.65117c0.15924,-0.7329 0.89214,-0.57366 0.89214,-0.57366c0.03073,0.00683 0.06136,0.01354 0.09188,0.02016c0.06108,-0.35283 0.36869,-0.62117 0.73898,-0.62117c0.0819,0 0.16073,0.01313 0.23451,0.03739l1.09716,0.33299l-0.06519,0.2148c1.62363,0.26768 3.10258,0.89477 4.77017,1.4863l0.17753,0.04041c0,0 0.72789,0.18075 0.54715,0.90864z" fill="#929292" stroke="none" stroke-width="0.5" stroke-linecap="butt"/></g></g></g></svg>