<svg version="1.1" xmlns="http://www.w3.org/2000/svg" xmlns:xlink="http://www.w3.org/1999/xlink" width="31.54722" height="31.54722" viewBox="0,0,31.54722,31.54722"><g transform="translate(-224.22641,-164.2264)"><g stroke-miterlimit="10"><path d="M225.22641,180.00001c0,-8.15922 6.61437,-14.77361 14.77361,-14.77361c8.15922,0 14.77361,6.61437 14.77361,14.77361c0,8.15922 -6.61437,14.77361 -14.77361,14.77361c-8.15922,0 -14.77361,-6.61437 -14.77361,-14.77361z" fill="#c49e64" stroke="#000000" stroke-width="2"/><path d="M225.22641,180.00001c0,-8.15922 6.61437,-14.77361 14.77361,-14.77361c8.15922,0 14.77361,6.61437 14.77361,14.77361c0,3.95593 -7.27046,-0.13491 -14.42673,-0.01499c-7.60375,0.12743 -15.12046,4.21828 -15.12046,0.01499z" fill="#c46464" stroke="#000000" stroke-width="2"/><path d="M231.26373,173.98883c0,-0.48466 0.3929,-0.87756 0.87756,-0.87756c0.48466,0 0.87756,0.3929 0.87756,0.87756c0,0.48466 -0.3929,0.87756 -0.87756,0.87756c-0.48466,0 -0.87756,-0.3929 -0.87756,-0.87756z" fill="#3fb400" stroke="none" stroke-width="0"/><path d="M244.4604,171.45093c0,-0.86652 0.70245,-1.56895 1.56895,-1.56895c0.86652,0 1.56895,0.70245 1.56895,1.56895c0,0.86652 -0.70245,1.56895 -1.56895,1.56895c-0.86652,0 -1.56895,-0.70245 -1.56895,-1.56895z" fill="#3fb400" stroke="none" stroke-width="0"/><path d="M235.15003,172.39497c0,-0.47081 0.38167,-0.85248 0.85248,-0.85248c0.47081,0 0.85248,0.38167 0.85248,0.85248c0,0.47081 -0.38167,0.85248 -0.85248,0.85248c-0.47081,0 -0.85248,-0.38167 -0.85248,-0.85248z" fill="#3fb400" stroke="none" stroke-width="0"/><path d="M248.26318,176.28c0,-0.26311 0.21329,-0.47638 0.47638,-0.47638c0.26311,0 0.47638,0.21329 0.47638,0.47638c0,0.26311 -0.21329,0.47638 -0.47638,0.47638c-0.26311,0 -0.47638,-0.21329 -0.47638,-0.47638z" fill="#3fb400" stroke="none" stroke-width="0"/><path d="M239.34043,174.58652c0,-0.26134 0.21185,-0.47318 0.47318,-0.47318c0.26134,0 0.47318,0.21185 0.47318,0.47318c0,0.26134 -0.21185,0.47318 -0.47318,0.47318c-0.26134,0 -0.47318,-0.21185 -0.47318,-0.47318z" fill="#3fb400" stroke="none" stroke-width="0"/></g></g></svg>